<?xml version="1.0" encoding="UTF-8" standalone="no"?>
<svg
   xmlns:dc="http://purl.org/dc/elements/1.1/"
   xmlns:cc="http://creativecommons.org/ns#"
   xmlns:rdf="http://www.w3.org/1999/02/22-rdf-syntax-ns#"
   xmlns:svg="http://www.w3.org/2000/svg"
   xmlns="http://www.w3.org/2000/svg"
   xmlns:sodipodi="http://sodipodi.sourceforge.net/DTD/sodipodi-0.dtd"
   xmlns:inkscape="http://www.inkscape.org/namespaces/inkscape"
   width="1920.193"
   height="1054.854"
   viewBox="0 0 1920.193 1054.854"
   id="svg2"
   version="1.1"
   inkscape:version="0.91 r13725"
   sodipodi:docname="footer-bg.svg">
  <metadata
     id="metadata16">
    <rdf:RDF>
      <cc:Work
         rdf:about="">
        <dc:format>image/svg+xml</dc:format>
        <dc:type
           rdf:resource="http://purl.org/dc/dcmitype/StillImage" />
      </cc:Work>
    </rdf:RDF>
  </metadata>
  <sodipodi:namedview
     pagecolor="#ffffff"
     bordercolor="#666666"
     borderopacity="1"
     objecttolerance="10"
     gridtolerance="10"
     guidetolerance="10"
     inkscape:pageopacity="0"
     inkscape:pageshadow="2"
     inkscape:window-width="1920"
     inkscape:window-height="1053"
     id="namedview14"
     showgrid="false"
     inkscape:zoom="0.49934397"
     inkscape:cx="804.34228"
     inkscape:cy="678.47295"
     inkscape:window-x="-9"
     inkscape:window-y="-9"
     inkscape:window-maximized="1"
     inkscape:current-layer="Group_111" />
  <defs
     id="defs4">
    <linearGradient
       id="linear-gradient"
       x1="0.5"
       y1="1"
       x2="0.5"
       gradientUnits="objectBoundingBox">
      <stop
         offset="0"
         stop-color="#361cc1"
         id="stop7" />
      <stop
         offset="1"
         stop-color="#2e82ef"
         id="stop9" />
    </linearGradient>
  </defs>
  <g
     id="Group_111"
     data-name="Group 111"
     transform="translate(0.13 -6328.591)">
    <path
       id="Path_195"
       data-name="Path 195"
       d="M1367.063,374.808s-85.855-337.77-386.677-270.232-439.4,0-538.268-145.16-352-126.953-574.629-79.205S-434.941-141.322-553.13-300.409c0,.029.052,1054.854.052,1054.854H1367.047Z"
       transform="translate(553 6629)"
       opacity="0.11"
       fill="url(#linear-gradient)" />
    <path
       id="Path_194"
       data-name="Path 194"
       d="M1357.421,316.985S1271.128,25.525,971.495,90.593s-437.666,0-536.141-139.852S86.839-193.9-141.188-137.578s-380-116.481-421.437-220.589c.1,8-.016,1054.71-.016,1054.71H1357.406Z"
       transform="translate(562.61 6686.902)"
       fill="url(#linear-gradient)" />
    <path
       style="fill:#ffcc00;fill-opacity:0.19607843;stroke:none;stroke-width:0.17716534;stroke-linecap:butt;stroke-linejoin:miter;stroke-miterlimit:4;stroke-dasharray:none;stroke-dashoffset:0;stroke-opacity:0.24444442"
       d="m -0.71400497,528.58075 c 0,-289.68008 0.36564896,-526.6910524 0.81255332,-526.6910524 0.44690437,0 3.59888835,5.9542608 7.00440855,13.2316904 16.0727551,34.346689 41.4303691,70.077474 72.1450651,101.657832 56.425918,58.01621 114.394628,91.13479 188.592588,107.74635 18.60904,4.16623 25.72642,4.65132 66.8855,4.55874 49.42427,-0.11115 47.69526,0.11475 112.14715,-14.66284 180.80452,-41.45534 347.32651,-36.09416 452.79865,14.57785 43.54974,20.92261 72.13469,44.56179 102.04379,84.38816 34.7673,46.29548 64.0269,75.42182 99.8146,99.35977 62.9655,42.11692 132.2071,60.3471 228.5017,60.16071 62.4923,-0.12096 104.7336,-4.99678 194.1623,-22.41164 56.0775,-10.92027 85.245,-13.42095 120.3198,-10.31568 75.5402,6.68778 135.1579,35.60626 189.2474,91.79728 33.2038,34.49396 59.3411,74.51669 77.1794,118.18124 l 8.8282,21.60946 0.018,191.75159 0.019,191.75159 -960.25989,0 -960.25991497,0 0,-526.69105 z"
       id="path4230"
       inkscape:connector-curvature="0"
       transform="translate(-0.13,6328.591)" />
    <path
       style="fill:#ffcc00;fill-opacity:0.19607843;stroke:none;stroke-width:0.17716534;stroke-linecap:butt;stroke-linejoin:miter;stroke-miterlimit:4;stroke-dasharray:none;stroke-dashoffset:0;stroke-opacity:0.24444442"
       d="m -0.71400497,528.58075 c 0,-289.68008 0.48828206,-526.6910524 1.08507108,-526.6910524 0.59678922,0 3.62200569,5.63239 6.72270319,12.5164224 26.8481387,59.607056 87.5301927,126.90072 148.5351507,164.71879 53.0439,32.88287 104.0725,48.45304 165.40951,50.47083 41.72697,1.37266 60.30729,-0.68213 112.81775,-12.47657 174.81418,-39.2652 315.40523,-40.87644 425.05307,-4.87131 62.36603,20.47917 104.22445,50.23593 143.99585,102.36535 24.4643,32.06593 46.184,56.16731 65.5901,72.78229 55.2457,47.29982 120.1259,74.05573 201.458,83.07917 23.6,2.61831 93.9809,2.5772 123.1616,-0.0719 34.7662,-3.15624 74.1973,-9.16778 124.1629,-18.92949 56.1889,-10.97755 83.7126,-13.86686 116.115,-12.18922 83.3844,4.31723 151.2189,37.32388 209.9494,102.15632 26.267,28.99608 53.0829,72.20966 69.3087,111.69064 l 7.155,17.40965 0,192.36559 0,192.36554 -960.25989,0 -960.25991497,0 0,-526.69105 z"
       id="path4232"
       inkscape:connector-curvature="0"
       transform="translate(-0.13,6328.591)" />
    <path
       style="fill:#ffcc00;fill-opacity:0.19607843;stroke:none;stroke-width:0.17716534;stroke-linecap:butt;stroke-linejoin:miter;stroke-miterlimit:4;stroke-dasharray:none;stroke-dashoffset:0;stroke-opacity:0.24444442"
       d="m -0.71400497,528.58075 c 0,-289.68008 0.39629016,-526.6910524 0.88064486,-526.6910524 0.4843547,0 6.37305121,10.5888934 13.08599211,23.5308734 C 57.72439,111.15834 141.34618,184.20467 228.13181,213.12445 c 29.49414,9.8284 56.31165,14.59491 90.57328,16.0984 37.85181,1.66102 63.89976,-0.95671 109.1432,-10.96857 69.11395,-15.29415 105.75376,-21.5674 160.21021,-27.4303 45.41,-4.88893 136.43187,-4.88643 173.22728,0.005 64.49673,8.57351 112.47476,22.76197 154.20233,45.60202 35.9757,19.6917 59.20387,40.51548 89.42609,80.16949 60.6579,79.58794 121.3118,122.12083 203.5341,142.7261 41.94,10.51035 59.0621,12.18587 123.5863,12.09369 76.1628,-0.10876 82.5033,-0.8845 224.2943,-27.44083 32.7912,-6.14149 89.7039,-6.08842 120.6841,0.11255 28.8665,5.77792 52.1418,13.97658 78.7742,27.74797 67.2268,34.76251 125.8893,103.04668 158.0253,183.94442 l 5.9933,15.08736 0,192.20012 0,192.20012 -960.25989,0 -960.25991497,0 0,-526.69105 z"
       id="path4234"
       inkscape:connector-curvature="0"
       transform="translate(-0.13,6328.591)" />
    <path
       style="fill:#ffcc00;fill-opacity:0.19607843;stroke:none;stroke-width:0.17716534;stroke-linecap:butt;stroke-linejoin:miter;stroke-miterlimit:4;stroke-dasharray:none;stroke-dashoffset:0;stroke-opacity:0.24444442"
       d="m -0.71400497,528.58281 c 0,-289.6812 0.44154734,-526.6931124 0.98121602,-526.6931124 0.53966887,0 4.95124195,7.8853461 9.80349595,17.5229914 C 54.85762,108.36937 143.39857,186.06162 231.59079,213.79048 c 38.61993,12.14266 48.39995,13.39768 104.13664,13.36348 48.4601,-0.0298 52.3449,-0.31582 76.09984,-5.60382 80.47279,-17.9137 126.59751,-25.87338 184.24174,-31.79436 33.27994,-3.41837 130.65821,-3.3646 159.20889,0.0879 96.91654,11.71972 169.61727,41.05747 216.00521,87.16705 7.88959,7.84225 23.73232,26.42459 35.20609,41.2941 25.5576,33.12158 62.8083,70.54304 88.2341,88.6386 10.4637,7.44703 30.7403,19.32061 45.0591,26.38574 63.1914,31.17969 125.9882,41.3385 229.3414,37.10118 44.8436,-1.83853 72.2877,-5.42091 145.1731,-18.94998 26.4475,-4.9092 57.5383,-9.96314 69.0907,-11.23094 24.8365,-2.72568 65.7945,-1.31685 90.6134,3.11677 97.1802,17.36022 179.4198,84.91808 228.8051,187.95783 20.7423,43.2778 19.0948,22.29712 18.5121,235.74836 l -0.5111,187.19809 -960.76053,0.5027 -960.76057497,0.5027 0,-526.69309 z"
       id="path4236"
       inkscape:connector-curvature="0"
       transform="translate(-0.13,6328.591)" />
    <path
       style="fill:#ffcc00;fill-opacity:0.19607843;stroke:none;stroke-width:0.17716534;stroke-linecap:butt;stroke-linejoin:miter;stroke-miterlimit:4;stroke-dasharray:none;stroke-dashoffset:0;stroke-opacity:0.24444442"
       d="m -0.71400497,528.58075 c 0,-289.68008 0.37281436,-526.6910524 0.82847661,-526.6910524 0.45566206,0 5.55351456,8.7865284 11.32856136,19.5256184 41.813152,77.754391 105.914947,140.139354 180.416637,175.584574 42.14545,20.05127 74.53098,28.05497 121.83885,30.11097 44.04327,1.91413 76.12252,-1.12223 126.16554,-11.94177 88.42322,-19.11753 145.72215,-26.68099 215.28246,-28.41728 122.6738,-3.06205 213.91779,17.21322 282.98315,62.88148 21.73212,14.36998 42.36589,34.95528 70.84063,70.67419 64.407,80.79274 125.956,121.68586 212.1525,140.95386 35.6271,7.96395 63.8113,9.87081 127.8493,8.64985 63.9516,-1.21928 71.9102,-2.12124 163.299,-18.50668 89.401,-16.02903 129.5407,-16.86665 181.9038,-3.79582 71.3362,17.80684 134.4761,64.6155 180.5852,133.87651 16.3238,24.52019 33.8372,58.37691 41.8429,80.89029 l 5.2055,14.63839 0,189.12897 0,189.12895 -961.26127,0 -961.26123497,0 0,-526.69105 z"
       id="path4238"
       inkscape:connector-curvature="0"
       transform="translate(-0.13,6328.591)" />
    <path
       style="fill:#ffcc00;fill-opacity:0.19607843;stroke:none;stroke-width:0.17716534;stroke-linecap:butt;stroke-linejoin:miter;stroke-miterlimit:4;stroke-dasharray:none;stroke-dashoffset:0;stroke-opacity:0.24444442"
       d="m -0.71400497,527.24565 c 0,-290.41436 0.35705348,-527.65062979 0.79345226,-527.19169438 C 0.51584607,0.51289117 5.9475662,10.202695 12.149936,21.586853 62.450805,113.91172 140.75154,181.9558 231.67402,212.35538 c 35.77718,11.96194 56.0637,14.33833 113.06523,13.24464 47.9238,-0.91953 48.19073,-0.94915 92.12087,-10.22269 55.54079,-11.72451 103.68692,-20.02636 142.18655,-24.51725 38.08023,-4.44198 151.83448,-5.14648 181.2378,-1.12245 91.71423,12.55168 160.13799,39.77745 206.53194,82.1789 6.14639,5.61745 20.95435,22.1829 32.9066,36.8121 55.56219,68.00653 88.97459,97.38958 140.03929,123.15134 62.153,31.35568 125.6811,41.59427 228.8369,36.88071 53.226,-2.43209 67.5761,-4.20766 145.6745,-18.02473 64.7504,-11.45553 80.7936,-13.03382 118.1444,-11.62273 47.211,1.78358 80.5532,10.2156 120.3467,30.43487 61.7228,31.36169 114.4996,87.37094 148.8538,157.97067 22.2125,45.64805 20.1899,21.75332 20.1899,238.5127 l 0,189.24034 -961.26127,0 -961.26123497,0 0,-528.02615 z"
       id="path4240"
       inkscape:connector-curvature="0"
       transform="translate(-0.13,6328.591)" />
    <path
       style="fill:#ffcc00;fill-opacity:0.19607843;stroke:none;stroke-width:0.17716534;stroke-linecap:butt;stroke-linejoin:miter;stroke-miterlimit:4;stroke-dasharray:none;stroke-dashoffset:0;stroke-opacity:0.24444442"
       d="m -0.71400497,527.13383 c 0,-434.467096 0.46248741,-527.43734524 2.60761117,-524.1877588 1.4341859,2.1726074 8.2766088,13.9659608 15.2053848,26.2074518 19.152211,33.837383 41.588666,62.761289 72.058328,92.893827 37.929131,37.50948 69.665361,59.29618 114.924141,78.89464 50.84305,22.01662 88.27676,27.47823 160.68407,23.44398 29.56971,-1.64751 44.02924,-3.64092 80.46633,-11.0932 98.29563,-20.10389 136.99849,-24.98778 209.91466,-26.489 63.80215,-1.31359 99.26276,0.77133 139.18262,8.18328 80.1513,14.88175 140.91605,43.38617 180.31981,84.58705 7.20523,7.53386 22.50941,24.96269 34.00925,38.73075 50.2848,60.20279 83.937,89.09464 131.6223,113.00353 54.0179,27.084 103.9457,37.19354 183.6869,37.19354 67.8737,0 97.1319,-2.70235 177.2893,-16.37478 64.4355,-10.99077 74.5628,-12.21876 108.1419,-13.11279 42.4818,-1.13104 72.3189,2.6997 104.1867,13.37641 78.1399,26.17925 144.9307,87.95294 187.394,173.31742 22.7704,45.77556 20.8292,23.35831 20.8292,240.52627 l 0,189.03735 -961.26127,0 -961.26123497,0 0,-528.13797 z"
       id="path4242"
       inkscape:connector-curvature="0"
       transform="translate(-0.13,6328.591)" />
    <path
       style="fill:#ffcc00;fill-opacity:0.19607843;stroke:none;stroke-width:0.17716534;stroke-linecap:butt;stroke-linejoin:miter;stroke-miterlimit:4;stroke-dasharray:none;stroke-dashoffset:0;stroke-opacity:0.24444442"
       d="m -0.71400497,527.57943 c 0,-290.2308 0.37535669,-527.69235994 0.83412583,-527.69235994 0.45876933,0 6.89921254,10.58889294 14.31209614,23.53087394 23.992056,41.887168 44.073227,67.569357 80.280071,102.671686 35.848872,34.75528 66.765622,55.66046 109.321252,73.92047 47.62723,20.43618 62.69289,23.16994 127.68863,23.16994 57.62935,0 62.67796,-0.52386 126.78211,-13.15564 103.40875,-20.37678 124.93862,-22.64031 216.66852,-22.77935 52.42502,-0.0795 79.36883,0.67724 92.12087,2.58714 89.55029,13.41214 157.03523,41.16946 200.00898,82.26598 7.57055,7.23982 25.6992,27.13166 40.28585,44.20406 50.6346,59.26305 88.0242,91.46799 131.6045,113.35534 58.9314,29.59714 99.5453,37.5257 191.8403,37.45072 66.6769,-0.0541 87.6323,-2.05067 176.4824,-16.81424 52.8388,-8.77986 65.827,-10.25489 98.8789,-11.22937 23.9841,-0.70715 44.4602,-0.26689 55.3907,1.19094 101.0982,13.48385 187.0334,80.01847 239.6037,185.51122 22.2208,44.59053 20.4195,23.37691 20.4195,240.46761 l 0,189.03735 -961.26127,0 -961.26123497,0 0,-527.69237 z"
       id="path4244"
       inkscape:connector-curvature="0"
       transform="translate(-0.13,6328.591)" />
  </g>
</svg>
